# xmcd
#
# Track frame offsets:
#	150
#	5100
#	22650
#	37800
#	57640
#	76606
#	101244
#	117783
#	132646
#	149389
#	170422
#	188905
#
# Disc length: 2886 seconds
#
# Revision: 0
# Processed by: cddbd v1.5.2PL0 Copyright (c) Steve Scherf et al.
# Submitted via: EZCDAudioConverter 1.3.2.1
#
DISCID=9c0b440c
DTITLE=Mojo Makers - Wait Till The Morning
DYEAR=2013
DGENRE=Blues
TTITLE0=Wait Till The Morning - Prelude
TTITLE1=Wait Till The Morning
TTITLE2=Hold On
TTITLE3=The Devil
TTITLE4=Red Lights
TTITLE5=Faster With The Gun
TTITLE6=Coming Home To You
TTITLE7=No Good
TTITLE8=Wild Moon Child
TTITLE9=Up To You
TTITLE10=Let Me Take You There
TTITLE11=Light On Love
EXTD=
EXTT0=
EXTT1=
EXTT2=
EXTT3=
EXTT4=
EXTT5=
EXTT6=
EXTT7=
EXTT8=
EXTT9=
EXTT10=
EXTT11=
PLAYORDER=
